<?xml version="1.0" encoding="utf-8"?>
<!-- Generator: Adobe Illustrator 26.0.2, SVG Export Plug-In . SVG Version: 6.00 Build 0)  -->
<svg version="1.1" id="Layer_1" xmlns="http://www.w3.org/2000/svg" xmlns:xlink="http://www.w3.org/1999/xlink" x="0px" y="0px"
	 viewBox="0 0 423 432" style="enable-background:new 0 0 423 432;" xml:space="preserve">
<style type="text/css">
	.st0{fill:#5E090B;}
	.st1{fill:#D2CFCE;}
</style>
<g>
	<path class="st0" d="M197.3,245.8c-0.1-1.6-0.1-3.3-0.1-4.9v9.7h0.4C197.4,249,197.3,247.4,197.3,245.8z M234.9,34.3
		c-5-4.8-11.1-7.3-18.1-7.3c-7.1,0-13.1,2.4-18.1,7.3c-5,4.8-7.6,10.8-7.6,17.8c0,7,2.5,13,7.6,17.8c5,4.8,11.1,7.3,18.1,7.3
		c7,0,13.1-2.4,18.1-7.3c5-4.8,7.6-10.8,7.6-17.8C242.4,45,239.9,39.1,234.9,34.3z"/>
	<path class="st0" d="M339.1,163.2v146.5h-37.8V298c-11.1,9.8-24.3,14.8-39.6,14.8c-9.4,0-17.9-1.6-25.7-4.9
		c-1.1,26.3-9.8,46.6-25.8,61.1c-15.6,13.9-35.8,20.8-60.7,20.8c-24.8,0-45-6.9-60.6-20.8c-17.3-15.6-26-38-26-67.3V184.7h39v119.8
		c0,16.7,4.4,29.2,13.3,37.5c9.1,8.7,20.5,13,34.3,13c13.9,0,25.3-4.3,34.4-13c8.9-8.3,13.3-20.8,13.3-37.5v-54h0.3
		c-0.2-1.5-0.2-3.1-0.3-4.7c-0.1-1.6-0.1-3.3-0.1-4.9V104h39.3v138.4c0,11.3,2.4,19.6,7.3,25.1c5.4,6,12.8,9.1,22.1,9.1
		c13.3,0,24.7-6,34.1-18.1v-95.2H339.1z"/>
</g>
<g>
	<path class="st1" d="M197.3,245.8v4.7h0.3C197.4,249,197.3,247.4,197.3,245.8z"/>
</g>
</svg>
